<?xml version="1.0" encoding="UTF-8" standalone="no"?>
<!-- Created with Inkscape (http://www.inkscape.org/) -->

<svg
   xmlns:dc="http://purl.org/dc/elements/1.1/"
   xmlns:cc="http://creativecommons.org/ns#"
   xmlns:rdf="http://www.w3.org/1999/02/22-rdf-syntax-ns#"
   xmlns:svg="http://www.w3.org/2000/svg"
   xmlns="http://www.w3.org/2000/svg"
   xmlns:sodipodi="http://sodipodi.sourceforge.net/DTD/sodipodi-0.dtd"
   xmlns:inkscape="http://www.inkscape.org/namespaces/inkscape"
   width="200mm"
   height="200mm"
   viewBox="0 0 200 200"
   version="1.1"
   id="svg8"
   inkscape:version="0.92.4 (5da689c313, 2019-01-14)"
   sodipodi:docname="w.svg">
  <defs
     id="defs2" />
  <sodipodi:namedview
     id="base"
     pagecolor="#000000"
     bordercolor="#666666"
     borderopacity="1.0"
     inkscape:pageopacity="0.50196078"
     inkscape:pageshadow="2"
     inkscape:zoom="0.49497475"
     inkscape:cx="410.07967"
     inkscape:cy="410.67412"
     inkscape:document-units="mm"
     inkscape:current-layer="layer1"
     showgrid="false"
     inkscape:pagecheckerboard="true"
     inkscape:window-width="1920"
     inkscape:window-height="1017"
     inkscape:window-x="-8"
     inkscape:window-y="-8"
     inkscape:window-maximized="1" />
  <metadata
     id="metadata5">
    <rdf:RDF>
      <cc:Work
         rdf:about="">
        <dc:format>image/svg+xml</dc:format>
        <dc:type
           rdf:resource="http://purl.org/dc/dcmitype/StillImage" />
        <dc:title />
      </cc:Work>
    </rdf:RDF>
  </metadata>
  <g
     inkscape:label="Layer 1"
     inkscape:groupmode="layer"
     id="layer1"
     transform="translate(0,-97)">
    <circle
       style="opacity:1;fill:#990000;fill-opacity:1;stroke:#990000;stroke-width:1.23732185;stroke-linecap:butt;stroke-linejoin:miter;stroke-miterlimit:6;stroke-dasharray:none;stroke-dashoffset:0;stroke-opacity:1;paint-order:normal"
       id="path812"
       cx="100.00001"
       cy="196.99998"
       r="99.381348" />
    <path
       style="fill:#ffffff;fill-opacity:1;stroke:none;stroke-width:0.39484179px;stroke-linecap:butt;stroke-linejoin:miter;stroke-opacity:1"
       d="m 78.156993,138.77688 c -5.430457,-0.0647 -7.507799,0.95353 -13.350581,3.18496 0.04078,7.3535 0.03467,23.56395 10.320643,36.09639 -20.882629,-2.4737 -48.355244,7.21108 -51.95023,25.87526 -3.594989,18.66417 12.797271,37.63621 37.269365,41.80388 -0.505926,1.97399 -1.129544,3.47088 -2.255687,5.21775 25.596813,5.38641 40.878058,2.19843 56.687567,-1.23387 12.56615,-4.2784 21.6177,-8.01572 37.08737,-15.9348 22.85163,-11.69798 33.55848,-38.66073 18.40176,-61.20048 -20.39393,-30.32806 -61.76203,-34.71048 -87.146678,2.32664 -6.357189,-14.14164 -3.98644,-27.19815 -2.510166,-36.04165 -0.933366,-0.0532 -1.777578,-0.0847 -2.553363,-0.0941 z m 22.619337,30.49536 c 5.34628,0 6.17206,0.0701 9.73073,0.0701 5.32653,19.87894 11.25643,35.55524 17.51723,58.92087 5.66791,-21.15297 12.94954,-42.29698 17.10158,-57.79264 h 17.55657 c -5.43256,20.27464 -16.79997,46.57816 -21.15255,62.82226 -9.67914,4.10925 -16.87969,7.01564 -24.53649,10.08235 -4.23176,-15.79317 -9.80294,-31.1523 -12.62105,-41.66969 -3.48602,13.00992 -10.107753,33.87711 -13.537224,46.67616 -3.545724,0.26077 -12.248505,0.3796 -17.697718,-0.7758 -4.443392,-16.58301 -14.651544,-45.22762 -19.3187,-62.64566 8.5089,-2.03568 7.179889,-1.71488 16.780775,-1.69197 4.319689,16.12122 8.345576,27.3949 12.973478,44.66648 6.117082,-18.99476 13.093033,-43.3225 17.203369,-58.66253 z"
       id="path829"
       inkscape:connector-curvature="0" />
  </g>
</svg>
