<?xml version="1.0" encoding="UTF-8" standalone="no"?>
<!-- Created with Inkscape (http://www.inkscape.org/) -->

<svg
   xmlns:dc="http://purl.org/dc/elements/1.1/"
   xmlns:cc="http://creativecommons.org/ns#"
   xmlns:rdf="http://www.w3.org/1999/02/22-rdf-syntax-ns#"
   xmlns:svg="http://www.w3.org/2000/svg"
   xmlns="http://www.w3.org/2000/svg"
   xmlns:sodipodi="http://sodipodi.sourceforge.net/DTD/sodipodi-0.dtd"
   xmlns:inkscape="http://www.inkscape.org/namespaces/inkscape"
   width="200mm"
   height="200mm"
   viewBox="0 0 200 200"
   version="1.1"
   id="svg8"
   inkscape:version="0.92.4 (5da689c313, 2019-01-14)"
   sodipodi:docname="fn.svg">
  <defs
     id="defs2" />
  <sodipodi:namedview
     id="base"
     pagecolor="#000000"
     bordercolor="#666666"
     borderopacity="1.0"
     inkscape:pageopacity="0.50196078"
     inkscape:pageshadow="2"
     inkscape:zoom="0.70710678"
     inkscape:cx="495.58617"
     inkscape:cy="413.84647"
     inkscape:document-units="mm"
     inkscape:current-layer="layer1"
     showgrid="false"
     inkscape:pagecheckerboard="true"
     inkscape:window-width="1920"
     inkscape:window-height="1017"
     inkscape:window-x="-8"
     inkscape:window-y="-8"
     inkscape:window-maximized="1" />
  <metadata
     id="metadata5">
    <rdf:RDF>
      <cc:Work
         rdf:about="">
        <dc:format>image/svg+xml</dc:format>
        <dc:type
           rdf:resource="http://purl.org/dc/dcmitype/StillImage" />
        <dc:title />
      </cc:Work>
    </rdf:RDF>
  </metadata>
  <g
     inkscape:label="Layer 1"
     inkscape:groupmode="layer"
     id="layer1"
     transform="translate(0,-97)">
    <circle
       style="opacity:1;fill:#007dae;fill-opacity:1;stroke:#007dae;stroke-width:1.23732185;stroke-linecap:butt;stroke-linejoin:miter;stroke-miterlimit:6;stroke-dasharray:none;stroke-dashoffset:0;stroke-opacity:1;paint-order:normal"
       id="path812"
       cx="100.00001"
       cy="196.99998"
       r="99.381348" />
    <path
       style="opacity:1;fill:#f9f9f9;fill-opacity:1;stroke:none;stroke-width:0.68181133;stroke-linecap:butt;stroke-linejoin:miter;stroke-miterlimit:6;stroke-dasharray:none;stroke-dashoffset:0;stroke-opacity:1;paint-order:normal"
       d="m 65,127 c -34.996474,0 -35,8.8e-4 -35,35 v 6.11038 c 0.228279,-0.33883 0.344435,-0.78723 0.428566,-1.12067 1.005708,-2.40329 2.07039,-4.80661 3.253653,-7.03402 3.194616,-6.44802 7.217542,-12.48574 12.186956,-17.58524 a 62.117604,61.547698 0 0 1 21.6524,-15.06438 c 0.135502,-0.13532 0.373266,-0.16837 0.47873,-0.30607 z m 58.50915,0 c 0.19931,0.0974 0.384,0.12343 0.56886,0.19266 2.24807,0.64491 4.49626,1.64187 6.74433,2.579 -0.47326,0 -0.76916,-1.4e-4 -1.24244,-0.17739 l -1.12392,-0.17738 c -4.02287,-0.58488 -8.10503,-1.22931 -12.2462,-1.58157 a 52.178787,51.700065 0 0 0 -26.148503,4.57206 77.203308,76.494995 0 0 0 -19.286041,12.66132 136.48125,135.22909 0 0 0 -21.533907,24.50184 59.692058,59.144406 0 0 0 -10.11647,26.55343 53.835255,53.341339 0 0 0 7.572355,32.64927 c 1.24236,2.05171 2.544106,3.98711 3.963933,6.0962 0.177433,0.11743 0.17724,0.2924 0.354778,0.46964 -0.354961,0.17503 -0.47313,-0.17498 -0.650659,-0.35223 A 51.232233,50.762198 0 0 1 30.132676,206.67483 C 30.075014,206.4842 30.036418,206.28207 30,206.07905 v 7.24922 a 44.369718,43.962642 0 0 0 6.758491,11.28075 60.047017,59.496106 0 0 0 19.522676,16.17851 91.579101,90.738891 0 0 0 22.184925,7.97184 143.99451,142.67342 0 0 0 18.33951,2.57901 c 4.318648,0.29244 8.637358,0.46986 13.133488,0.29262 6.1526,-0.2931 12.06867,-1.23132 17.68883,-3.5172 a 47.800973,47.362417 0 0 0 16.86044,-11.1957 49.043325,48.593372 0 0 0 11.06265,-18.75751 l 1.30168,-4.10315 c 0,-0.17724 0.1776,-0.35888 0.2959,-0.46964 a 2.3663847,2.3446742 0 0 1 0,1.40674 c -0.29581,6.56502 -1.59745,12.83718 -4.14134,18.75751 A 67.441969,66.823214 0 0 1 127.80532,261.88815 51.350553,50.879429 0 0 1 116.48677,267 h 18.51324 C 169.99367,267 170,267.00525 170,232 v -9.51162 l -0.96035,2.29549 a 64.306508,63.716521 0 0 1 -18.93126,26.08451 99.033209,98.124626 0 0 1 -13.66602,9.43747 c -0.11834,0 -0.11834,0.17702 -0.47328,0.17702 0.35494,-0.52728 0.65101,-0.81966 1.12429,-1.28932 3.25378,-3.51701 6.56663,-7.03412 9.46546,-10.90272 a 69.216759,68.581721 0 0 0 9.16955,-16.00258 36.087368,35.756282 0 0 0 1.59758,-6.85809 c 0.35495,-1.93429 0.65051,-3.86914 0.82803,-5.80322 l 0.47328,-6.68216 c 0.17743,-3.98601 0.17758,-8.03042 -0.17738,-11.84054 a 89.56766,88.745921 0 0 0 -8.16413,-31.82922 63.892392,63.306204 0 0 0 -26.03,-27.54977 c -3.84537,-2.22741 -8.04594,-3.86884 -12.54208,-4.51354 -3.01715,-0.46967 -6.27094,-0.64687 -9.28808,-0.46963 a 166.35685,164.83059 0 0 0 -18.043599,1.9338 h -0.29589 c 0,-0.35225 0.355005,-0.35223 0.473279,-0.35223 a 44.192237,43.786789 0 0 1 8.519271,-3.63424 c 4.200324,-1.29071 8.341299,-2.58007 12.719109,-3.39978 2.54387,-0.46969 4.96961,-0.65113 7.51348,-0.7619 l -3.8e-4,0.002 a 57.73979,57.210048 0 0 1 29.28403,6.74105 57.384832,56.858348 0 0 1 18.45799,15.47478 63.596594,63.013119 0 0 1 8.9471,15.89898 v -6.64363 c 0,-34.9993 1.1e-4,-35 -34.99999,-35 z m -31.022259,22.3027 c 0.29568,-0.002 0.5915,0.0117 0.887303,0.0411 l -0.05924,-7e-4 a 9.9979757,9.9062486 0 0 1 6.389539,3.51718 16.564695,16.412719 0 0 1 3.667697,8.2063 c 0.355,1.75862 0.47325,3.39933 0.47325,5.15838 0,3.81012 -0.76885,7.50309 -2.72114,10.8442 -1.124,1.93452 -2.543823,3.34157 -4.49608,4.51353 -3.194625,1.75885 -6.744263,1.40709 -9.82058,-1.17191 -3.076307,-2.34481 -4.791893,-5.56862 -5.44264,-9.26153 -0.946557,-4.8064 -0.650965,-9.37863 1.301318,-14.06804 a 13.784192,13.657727 0 0 1 3.668044,-5.27543 c 2.018835,-1.6929 4.082758,-2.48804 6.152545,-2.50304 z m 31.177109,7.54401 0.0592,0.002 a 9.5246987,9.4373142 0 0 1 3.54953,0.70227 c 2.48472,0.9965 3.90431,3.04802 4.85087,5.39284 1.0057,2.7549 1.3016,5.5101 1.00579,8.2063 a 22.184858,21.981322 0 0 1 -8.87368,15.06439 c -2.07059,1.58337 -4.31895,2.52049 -7.09945,2.52049 -3.78621,0 -6.86245,-2.05165 -8.5189,-5.86176 -0.94654,-2.11021 -1.24244,-4.2203 -1.24244,-6.4477 a 17.984525,17.819524 0 0 1 2.24823,-8.96819 c 1.12404,-2.05172 2.07063,-4.16287 3.84543,-5.74469 a 14.07999,13.950813 0 0 1 10.17536,-4.86505 z m -56.911585,14.12656 v 0.0585 c 2.425544,0 4.318869,0.93812 6.093666,2.34492 a 19.522676,19.343563 0 0 1 6.27067,10.89619 c 0.946575,4.0445 0.650773,7.97182 -0.94654,11.66496 -0.828231,1.75838 -1.952238,3.34122 -3.549542,4.51317 -2.721347,1.88313 -6.566543,1.88341 -9.642842,-0.1105 -2.425543,-1.6412 -4.141497,-3.92755 -5.442998,-6.44807 -1.597304,-3.04822 -2.425404,-6.27196 -2.307113,-9.78896 0.177476,-3.3411 0.82838,-6.68223 2.958139,-9.61303 1.597312,-2.34505 3.96354,-3.33996 6.56656,-3.5172 z m 70.163205,15.47406 a 11.062849,10.961352 0 0 1 1.77495,0.23482 7.690751,7.6201912 0 0 1 6.44845,6.56511 17.15629,16.998888 0 0 1 -3.72731,14.42028 c -2.07056,2.5205 -4.43689,4.63051 -7.57236,6.03731 -1.53815,0.8197 -2.83961,0.99707 -4.73271,0.99707 -1.18319,0 -2.42552,-0.17721 -3.54955,-0.46963 -2.95798,-0.82084 -4.49626,-2.87244 -5.3245,-5.80323 a 14.434948,14.302513 0 0 1 0.65103,-9.26117 20.705867,20.515899 0 0 1 10.70787,-11.54756 10.885371,10.785502 0 0 1 5.32413,-1.17227 z m -42.06237,9.67192 a 21.770741,21.571003 0 0 1 12.36435,3.51683 c 2.89882,1.93452 5.02842,4.45508 6.8032,7.38588 a 58.863824,58.32377 0 0 1 5.91626,13.24727 55.965003,55.451545 0 0 1 2.18862,8.79263 c 0.35499,2.57921 0.47344,4.98246 -0.11814,7.56146 -0.65075,3.04822 -2.72146,4.98166 -5.79776,5.56876 -3.66791,0.8206 -6.92159,-0.1184 -9.93874,-2.22751 -1.59731,-1.1137 -2.89887,-2.34485 -4.31869,-3.51682 -3.667901,-2.87166 -7.927287,-4.33852 -12.541731,-4.63096 -2.957999,-0.1174 -5.797742,0.17722 -8.874049,0.46964 -2.721346,0.35447 -5.442798,0.64706 -8.164126,0.17739 -2.89884,-0.6447 -5.26505,-2.22742 -7.039848,-4.51354 -0.650693,-1.2309 -0.65051,-2.52169 -0.828038,-3.9861 -0.177477,-2.52051 0.650746,-4.9822 1.893088,-7.20959 a 59.573741,59.027175 0 0 1 8.223023,-10.72679 c 2.780496,-2.87231 5.738477,-5.392 9.288064,-7.38589 a 21.179145,20.984834 0 0 1 8.87404,-2.34455 c 0.769081,-0.17724 1.597198,-0.17738 2.070477,-0.17738 z M 30,225.46797 V 232 c 0,35.0001 0.0044,35 35,35 h 2.473957 A 56.793237,56.272179 0 0 1 45.218516,252.15771 75.724322,75.029576 0 0 1 30.961082,227.65585 C 30.680321,226.91468 30.397653,226.1381 30,225.46797 Z"
       id="rect854"
       inkscape:connector-curvature="0" />
  </g>
</svg>
