<?xml version="1.0" encoding="UTF-8" standalone="no"?>
<!-- Created with Inkscape (http://www.inkscape.org/) -->

<svg
   xmlns:dc="http://purl.org/dc/elements/1.1/"
   xmlns:cc="http://creativecommons.org/ns#"
   xmlns:rdf="http://www.w3.org/1999/02/22-rdf-syntax-ns#"
   xmlns:svg="http://www.w3.org/2000/svg"
   xmlns="http://www.w3.org/2000/svg"
   xmlns:sodipodi="http://sodipodi.sourceforge.net/DTD/sodipodi-0.dtd"
   xmlns:inkscape="http://www.inkscape.org/namespaces/inkscape"
   width="200mm"
   height="200mm"
   viewBox="0 0 200 200"
   version="1.1"
   id="svg8"
   inkscape:version="0.92.4 (5da689c313, 2019-01-14)"
   sodipodi:docname="rb.svg">
  <defs
     id="defs2" />
  <sodipodi:namedview
     id="base"
     pagecolor="#000000"
     bordercolor="#666666"
     borderopacity="1.0"
     inkscape:pageopacity="0.50196078"
     inkscape:pageshadow="2"
     inkscape:zoom="0.7"
     inkscape:cx="569.43042"
     inkscape:cy="498.6676"
     inkscape:document-units="mm"
     inkscape:current-layer="layer1"
     showgrid="false"
     inkscape:pagecheckerboard="true"
     inkscape:window-width="1920"
     inkscape:window-height="1017"
     inkscape:window-x="-8"
     inkscape:window-y="-8"
     inkscape:window-maximized="1" />
  <metadata
     id="metadata5">
    <rdf:RDF>
      <cc:Work
         rdf:about="">
        <dc:format>image/svg+xml</dc:format>
        <dc:type
           rdf:resource="http://purl.org/dc/dcmitype/StillImage" />
        <dc:title></dc:title>
      </cc:Work>
    </rdf:RDF>
  </metadata>
  <g
     inkscape:label="Layer 1"
     inkscape:groupmode="layer"
     id="layer1"
     transform="translate(0,-97)">
    <circle
       style="opacity:1;fill:#ffffff;fill-opacity:1;stroke:#ffffff;stroke-width:1.23732185;stroke-linecap:butt;stroke-linejoin:miter;stroke-miterlimit:6;stroke-dasharray:none;stroke-dashoffset:0;stroke-opacity:1;paint-order:normal"
       id="path812"
       cx="100.00001"
       cy="196.99998"
       r="99.381348" />
    <path
       id="path832"
       d="m 138.61281,233.03272 h -26.6576 a 2.6749057,2.6747714 0 0 1 -2.66826,-2.68136 v -66.90184 c 0,-1.47872 1.19703,-2.67474 2.66826,-2.67474 h 24.71531 c 18.54752,0 22.43909,10.92135 22.43909,20.07711 0,5.2973 -1.40694,9.50238 -4.19868,12.58878 6.80151,2.8056 10.46407,9.12968 10.46407,18.27845 0,13.3478 -10.00625,21.31284 -26.76219,21.31284 m -38.704091,0 h -55.36739 a 2.6683513,2.6682174 0 0 1 -2.66183,-2.68136 v -66.90164 c 0,-1.47872 1.19135,-2.67494 2.66183,-2.67494 h 25.86602 c 16.15384,0 25.79398,8.69798 25.79398,23.26866 0,9.69204 -4.87245,17.30423 -12.72708,20.39724 l 18.423271,24.13811 a 2.6814101,2.6812755 0 0 1 -1.994661,4.44694 M 99.997459,97 C 44.775109,97 0,141.77097 0,196.99244 0,252.22695 44.773219,297 100.00237,297 155.2317,297 200,252.22903 200,197.00246 200,141.77589 155.23964,97.010022 100.00748,97.010022"
       inkscape:connector-curvature="0"
       style="fill:#e41321;stroke-width:5.00325203" />
  </g>
</svg>
